# xmcd
#
# Track frame offsets:
#	182
#	10572
#	22052
#	34727
#	45745
#	57067
#	67727
#	78895
#	90415
#	99740
#	111072
#	122540
#	132325
#	141140
#	151492
#
# Disc length: 2166 seconds
#
# Revision: 2
# Processed by: cddbd v1.5.2PL0 Copyright (c) Steve Scherf et al.
# Submitted via: audiograbber 1.83.01
#
DISCID=b308740f
DTITLE=Patsy Cline, The Legendary - A Collection of Country Classics Disc 2
DYEAR=1996
DGENRE=Country
TTITLE0=Walking Dream
TTITLE1=The Heart You Break May Be You Own
TTITLE2=Just a Closer Walk With Thee
TTITLE3=Don't Ever Leave Me Again
TTITLE4=Dear God
TTITLE5=That Wonderful Someone
TTITLE6=Hidin' Out
TTITLE7=Crazy Dreams
TTITLE8=Come On In (And Make Yourself At Home)
TTITLE9=Hungry For Love
TTITLE10=Cry Not For Me
TTITLE11=I'm Blue Again
TTITLE12=Ain't No Wheels On This Ship
TTITLE13=He'll Do For You
TTITLE14=I Can't Forget
EXTD=Phonographic Performance Ltd.\n(p) 1996 Carlton Home Entertainment Ltd.\n7
EXTD=210057
EXTT0=
EXTT1=
EXTT2=
EXTT3=
EXTT4=
EXTT5=
EXTT6=
EXTT7=
EXTT8=
EXTT9=
EXTT10=
EXTT11=
EXTT12=
EXTT13=
EXTT14=
PLAYORDER=
